<?xml version="1.0" encoding="utf-8"?>
<!-- Generator: Adobe Illustrator 19.2.1, SVG Export Plug-In . SVG Version: 6.00 Build 0)  -->
<svg version="1.1" id="HVAC_Dark" xmlns="http://www.w3.org/2000/svg" xmlns:xlink="http://www.w3.org/1999/xlink" x="0px" y="0px"
	 viewBox="0 0 30 30" style="enable-background:new 0 0 30 30;" xml:space="preserve">
<style type="text/css">
	.st0{fill:#14191F;}
</style>
<g>
	<path class="st0" d="M22.5,6c-1.518,0-3.601,0.516-5.632,1.368C17.258,3.552,16.958,0,13.424,0C9.324,0,6,3.358,6,7.5
		c0,1.518,0.516,3.601,1.368,5.632c-0.782-0.08-1.554-0.131-2.286-0.131C2.244,13.001,0,13.766,0,16.576C0,20.676,3.358,24,7.5,24
		c1.518,0,3.601-0.516,5.632-1.368C12.742,26.448,13.042,30,16.576,30c4.1,0,7.424-3.358,7.424-7.5c0-1.518-0.516-3.601-1.368-5.632
		c0.782,0.08,1.554,0.131,2.286,0.131c2.837,0,5.082-0.765,5.082-3.575C30,9.324,26.642,6,22.5,6z M24.918,14.999
		c-0.607,0-1.289-0.039-2.082-0.121l-3.349-0.342l1.301,3.105C21.547,19.452,22,21.268,22,22.5c0,3.033-2.433,5.5-5.424,5.5
		c-0.706,0-0.908-0.224-0.985-0.309c-0.324-0.359-0.816-1.467-0.47-4.855l0.342-3.349l-3.105,1.301C10.548,21.547,8.732,22,7.5,22
		C4.467,22,2,19.567,2,16.576c0-0.826,0.299-1.003,0.496-1.12c0.35-0.207,1.083-0.455,2.586-0.455c0.608,0,1.289,0.039,2.082,0.121
		l3.349,0.342l-1.301-3.105C8.453,10.548,8,8.732,8,7.5C8,4.467,10.433,2,13.424,2c0.706,0,0.908,0.224,0.985,0.309
		c0.324,0.359,0.816,1.467,0.47,4.855l-0.342,3.349l3.105-1.301C19.452,8.453,21.268,8,22.5,8c3.033,0,5.5,2.433,5.5,5.424
		C28,14.089,28,14.999,24.918,14.999z"/>
	<path class="st0" d="M15,11c-2.209,0-4,1.791-4,4c0,2.209,1.791,4,4,4s4-1.791,4-4C19,12.791,17.209,11,15,11z M15,17
		c-1.103,0-2-0.897-2-2c0-1.103,0.897-2,2-2s2,0.897,2,2C17,16.103,16.103,17,15,17z"/>
</g>
</svg>
