<?xml version="1.0" encoding="utf-8"?>
<!-- Generator: Adobe Illustrator 19.2.1, SVG Export Plug-In . SVG Version: 6.00 Build 0)  -->
<svg version="1.1" id="Notifications_White" xmlns="http://www.w3.org/2000/svg" xmlns:xlink="http://www.w3.org/1999/xlink"
	 x="0px" y="0px" viewBox="0 0 30 30" style="enable-background:new 0 0 30 30;" xml:space="preserve">
<style type="text/css">
	.st0{fill-rule:evenodd;clip-rule:evenodd;fill:#FFFFFF;}
</style>
<g>
	<path class="st0" d="M19,0H3C1.343,0,0,1.343,0,3v24c0,1.657,1.343,3,3,3h16c1.657,0,3-1.343,3-3V3C22,1.343,20.657,0,19,0z M20,27
		c0,0.551-0.449,1-1,1H3c-0.551,0-1-0.449-1-1V3c0-0.551,0.449-1,1-1h16c0.551,0,1,0.449,1,1V27z"/>
	<path class="st0" d="M27,0c-1.657,0-3,1.343-3,3v16c0,1.657,1.343,3,3,3s3-1.343,3-3V3C30,1.343,28.657,0,27,0z M28,19
		c0,0.551-0.449,1-1,1s-1-0.449-1-1V3c0-0.551,0.449-1,1-1s1,0.449,1,1V19z"/>
	<path class="st0" d="M27,24c-1.657,0-3,1.343-3,3s1.343,3,3,3s3-1.343,3-3S28.657,24,27,24z M27,28c-0.551,0-1-0.449-1-1
		s0.449-1,1-1s1,0.449,1,1S27.551,28,27,28z"/>
	<rect x="4" y="9" class="st0" width="14" height="2"/>
	<rect x="4" y="14" class="st0" width="14" height="2"/>
	<rect x="4" y="19" class="st0" width="14" height="2"/>
</g>
</svg>
